#File written by RizomUV 2022.0.11.g5424fda. Compilation :Nov 24 2021,04:16:21
mtllib moduloEsquina_NODO1:mtl
#begin vertices
v 1.523552 0.042635 1.259128
v 1.523552 3.593691 1.259128
v 1.523555 0.127773 1.259128
v 1.523555 0.127773 1.292929
v 1.523552 0.042635 1.292929
v 3.057356 3.593691 1.259128
v 3.057359 0.127773 1.259128
v 3.023555 0.127773 1.292929
v 3.023552 0.042635 2.792929
v 3.023552 0.042635 1.292929
v 3.057356 3.593691 2.792929
v 3.057356 0.127773 2.792929
v 3.023552 0.127773 2.792929
#end vertices

#begin 21 textures vertices 
vt 0.9287893 0.00390625 0
vt 0.4429878 0.00390625 0
vt 0.8999024 0.01312919 0
vt 0.9094067 0.0140232 0
vt 0.9335982 0.0129265 0
vt 0.00390625 0.00390663 0
vt 0.00390625 0.9960938 0
vt 0.909641 0.4454465 0
vt 0.9435128 0.00390625 0
vt 0.9435128 0.4333107 0
vt 0.890985 0.9960934 0
vt 0.890985 0.00390625 0
vt 0.9678852 0.00390625 0
vt 0.9678852 0.4333107 0
vt 0.9775623 0.4429869 0
vt 0.934208 0.4455324 0
vt 0.4519043 0.9960934 0
vt 0.8999024 0.455142 0
vt 0.4429878 0.9960934 0
vt 0.9775623 0.003906269 0
vt 0.4519043 0.00390625 0
#end 21 textures vertices 

#begin 3 normals 
vn -0 1 -0
vn -1 -0 -0
vn -0 -0 1
#end 3 normals 

#begin 7 faces
o Plane:001
s 0
f 7/18/1 3/3/1 4/4/1 8/8/1 
f 3/3/2 1/1/2 5/5/2 4/4/2 
f 7/15/1 8/14/1 13/13/1 12/20/1 
f 3/19/3 7/7/3 6/6/3 2/2/3 
f 5/5/3 10/16/3 8/8/3 4/4/3 
f 6/17/2 7/21/2 12/12/2 11/11/2 
f 8/14/2 10/10/2 9/9/2 13/13/2 
#end 7 faces

#ZOMPROPERTIES_04{
#ZOMPROPERTIES_04 table {Mesh table {SymPlane table {Point vector3d 0 0 0 Normal vector3d 1 0 0 Threshold double 0.01 
#ZOMPROPERTIES_04 Enabled bool false EdgeID int -1 SymEdgeID int -1 UPos double 0.5 LocalMode bool false } RootGroup C
#ZOMPROPERTIES_04 SubMeshGroup {Children table {Tile_0_0 CSubMeshGroup {Children table {} BBoxUV box3d 0 0 0 0 0 0 BBo
#ZOMPROPERTIES_04 x3D box3d 0 0 0 0 0 0 Area3D double 0 AreaUV double 0.900872 IsRoot bool false TopoStable table {Sel
#ZOMPROPERTIES_04 ected bool false Box box3d 0 1 0 1 0 1 U int 0 V int 0 NU int 0 NV int 0 Tiling vector3d 1 1 1 TileR
#ZOMPROPERTIES_04 atioMode string "1:1" Pack table {BoxFrameLocked bool false BoxFrameEdit bool false } } IsTile bool 
#ZOMPROPERTIES_04 true PolyIDs ints { 2 6 0 4 1 5 3 } } } BBoxUV box3d 0 0 0 0 0 0 BBox3D box3d 0 0 0 0 0 0 Area3D dou
#ZOMPROPERTIES_04 ble 0 AreaUV double 0 IsRoot bool true TopoStable table {Selected bool false Box box3d 0 1 0 1 0 1 U
#ZOMPROPERTIES_04  int 0 V int 0 NU int 1 NV int 1 Tiling vector3d 1 1 1 TileRatioMode string "1:1" Pack table {Rotate
#ZOMPROPERTIES_04  table {Mode int 2 Min double 0 Max double 90 Step double 0 } PaddingSize double 0.0078125 MarginSiz
#ZOMPROPERTIES_04 e double 0.00390625 Resolution int 256 MapResolution int 2048 Scaling table {TexelDensity double 102
#ZOMPROPERTIES_04 4 Mode int 0 } LayoutScalingMode int 2 MaxMutations int 1 } } IsTile bool false PolyIDs ints { } } M
#ZOMPROPERTIES_04 aps table {Density table {PrimType string "Polygon" Size int 1 DefaultValue double 1 ScaleType strin
#ZOMPROPERTIES_04 g "Log" MergeMode string "Average" MinValue double 0.1 MaxValue double 4 Data doubles { r 7 1 } } Pi
#ZOMPROPERTIES_04 n table {PrimType string "Vertex" Size int 1 DefaultValue double 0 ScaleType string "Normalized" Mer
#ZOMPROPERTIES_04 geMode string "Max" MinValue double 0 MaxValue double 1 Data doubles { r 21 0 } } Protect table {Pri
#ZOMPROPERTIES_04 mType string "Vertex" Size int 1 DefaultValue double 0 ScaleType string "Normalized" MergeMode strin
#ZOMPROPERTIES_04 g "Average" MinValue double -1 MaxValue double 1 Data doubles { r 21 0 } } } } }
#ZOMPROPERTIES_04}


#ZOMSCENE_01{
#ZOMSCENE_01 CScene {Settings table {AxisSystem table {UpVector string "y" } Unit string "cm" } }
#ZOMSCENE_01}

#begin 0 fatal error vertex (that RizomUV cannot handle)
#end 0 fatal error vertex (that RizomUV cannot handle)

#begin 0 error vertex
#end 0 error vertex
