# Blender 4.0.2
# www.blender.org
mtllib libro.mtl
o Cube.006
v -4.458934 8.328100 1.188736
v -4.458934 9.896461 1.188736
v -4.458934 8.328100 1.272186
v -4.458934 9.896461 1.272186
v -3.510592 8.328100 1.188736
v -3.510592 9.896461 1.188736
v -3.510592 8.328100 1.272186
v -3.510592 9.896461 1.272186
v -4.458934 8.328100 1.200814
v -4.458934 9.896461 1.200814
v -3.510592 8.328100 1.200814
v -3.510592 9.896461 1.200814
v -4.458934 9.896461 1.260108
v -3.510592 8.328100 1.260108
v -4.458934 8.328100 1.260108
v -3.510592 9.896461 1.260108
v -4.445503 8.328100 1.272186
v -4.445503 9.896461 1.272186
v -4.445503 8.328100 1.188736
v -4.445503 9.896461 1.188736
v -4.445503 9.896461 1.200814
v -4.445503 8.328100 1.200814
v -4.445503 8.328100 1.260108
v -4.445503 9.896461 1.260108
v -3.493693 9.898540 1.185853
v -3.493692 8.326145 1.185853
v -3.493693 9.898540 1.278234
v -3.493692 8.326145 1.278234
v -4.461816 9.898539 1.185853
v -4.461814 8.326144 1.185853
v -4.461816 9.898539 1.278234
v -4.461814 8.326144 1.278234
v -3.493693 9.898540 1.199224
v -3.493692 8.326145 1.199224
v -4.461816 9.898539 1.199224
v -4.461814 8.326144 1.199224
v -3.493692 8.326145 1.264863
v -4.461816 9.898539 1.264863
v -3.493693 9.898540 1.264863
v -4.461814 8.326144 1.264863
v -3.508561 9.898540 1.278234
v -3.508560 8.326145 1.278234
v -3.508561 9.898540 1.185853
v -3.508560 8.326145 1.185853
v -3.508560 8.326145 1.199224
v -3.508561 9.898540 1.199224
v -3.508561 9.898540 1.264863
v -3.508560 8.326145 1.264863
v -3.508788 8.326145 1.264863
v -3.508788 8.326145 1.199224
v -3.508790 9.898540 1.199224
v -3.508790 9.898540 1.264863
vn -1.0000 -0.0000 -0.0000
vn 1.0000 -0.0000 -0.0000
vn -0.0000 -0.0000 -1.0000
vn -0.0000 -1.0000 -0.0000
vn -0.0000 1.0000 -0.0000
vn -0.0000 -0.0000 1.0000
vt 0.756240 0.964509
vt 0.756240 0.731067
vt 0.781632 0.731067
vt 0.781632 0.964509
vt 0.721016 0.451499
vt 0.721016 0.218057
vt 0.746409 0.218057
vt 0.746409 0.451499
vt 0.664196 0.478818
vt 0.430754 0.478818
vt 0.430754 0.475194
vt 0.664196 0.475194
vt 0.456147 0.734691
vt 0.456147 0.986940
vt 0.430754 0.986940
vt 0.430754 0.734691
vt 0.222105 0.988654
vt 0.222105 0.992277
vt 0.196712 0.992277
vt 0.196712 0.988654
vt 0.346759 0.988654
vt 0.346759 0.992277
vt 0.606193 0.964509
vt 0.606193 0.731067
vt 0.631586 0.731067
vt 0.631586 0.964509
vt 0.372151 0.969846
vt 0.372151 0.736405
vt 0.397544 0.736405
vt 0.397544 0.969846
vt 0.606193 0.734691
vt 0.606193 0.986940
vt 0.580801 0.986940
vt 0.580801 0.734691
vt 0.372151 0.988654
vt 0.372151 0.992277
vt 0.372151 0.736405
vt 0.346759 0.736405
vt 0.606193 0.731067
vt 0.580801 0.731067
vt 0.456147 0.731067
vt 0.222105 0.736405
vt 0.196712 0.736405
vt 0.430754 0.731067
vt 0.664196 0.731067
vt 0.430754 0.731067
vt 0.750421 0.451499
vt 0.750421 0.218057
vt 0.754045 0.218057
vt 0.754045 0.451499
vt 0.030608 0.740477
vt 0.030607 0.974519
vt 0.002497 0.974519
vt 0.002498 0.740477
vt 0.560135 0.012048
vt 0.245598 0.012047
vt 0.245597 0.202734
vt 0.560135 0.202734
vt 0.721016 0.218057
vt 0.721016 0.452099
vt 0.692906 0.452099
vt 0.692906 0.218057
vt 0.236539 0.222069
vt 0.002498 0.222069
vt 0.002498 0.218057
vt 0.236539 0.218058
vt 0.264649 0.222069
vt 0.264650 0.479267
vt 0.236540 0.479267
vt 0.236539 0.222069
vt 0.168602 0.483279
vt 0.168602 0.479267
vt 0.196712 0.479267
vt 0.196712 0.483279
vt 0.030608 0.483279
vt 0.030608 0.479267
vt 0.196712 0.740477
vt 0.196712 0.974519
vt 0.168602 0.974519
vt 0.168602 0.740477
vt 0.692906 0.218057
vt 0.692906 0.452099
vt 0.664796 0.452099
vt 0.664796 0.218057
vt 0.430754 0.222069
vt 0.430754 0.479267
vt 0.402644 0.479267
vt 0.402644 0.222069
vt 0.002498 0.483279
vt 0.002498 0.479267
vt 0.002497 0.740477
vt 0.030607 0.740477
vt 0.430754 0.218057
vt 0.402644 0.218057
vt 0.264649 0.218057
vt 0.168602 0.740477
vt 0.196712 0.740477
vt 0.236539 0.218057
vt 0.236539 0.479268
vt 0.002497 0.479267
vt 0.750420 0.218057
vt 0.750421 0.452099
vt 0.746409 0.452099
vt 0.802190 0.475194
vt 0.802190 0.709236
vt 0.664196 0.709236
vt 0.430754 0.736405
vt 0.196712 0.736404
vt 0.196712 0.479267
vt 0.430754 0.479268
vt 0.664796 0.475194
vt 0.430754 0.475194
vt 0.430754 0.218058
vt 0.664796 0.218057
s 0
usemtl Material
f 15/1/1 3/4/1 4/3/1 13/2/1
f 11/5/2 5/8/2 6/7/2 12/6/2
f 19/9/3 1/12/3 2/11/3 20/10/3
f 22/13/4 19/16/4 5/15/4 11/14/4
f 21/17/5 20/20/5 2/19/5 10/18/5
f 24/21/5 21/17/5 10/18/5 13/22/5
f 1/23/1 9/26/1 10/25/1 2/24/1
f 7/27/2 14/30/2 16/29/2 8/28/2
f 17/31/4 23/34/4 14/33/4 7/32/4
f 18/35/5 24/21/5 13/22/5 4/36/5
f 9/26/1 15/1/1 13/2/1 10/25/1
f 8/37/5 16/38/5 24/21/5 18/35/5
f 3/39/4 15/40/4 23/34/4 17/31/4
f 15/40/4 9/41/4 22/13/4 23/34/4
f 12/42/5 6/43/5 20/20/5 21/17/5
f 9/41/4 1/44/4 19/16/4 22/13/4
f 5/45/3 19/9/3 20/10/3 6/46/3
f 3/47/6 17/50/6 18/49/6 4/48/6
f 22/13/4 11/14/4 14/33/4 23/34/4
f 12/42/5 21/17/5 24/21/5 16/38/5
f 39/51/2 27/54/2 28/53/2 37/52/2
f 41/55/6 31/58/6 32/57/6 42/56/6
f 35/59/1 29/62/1 30/61/1 36/60/1
f 43/63/3 25/66/3 26/65/3 44/64/3
f 46/67/5 43/70/5 29/69/5 35/68/5
f 45/71/4 44/74/4 26/73/4 34/72/4
f 48/75/4 45/71/4 34/72/4 37/76/4
f 25/77/2 33/80/2 34/79/2 26/78/2
f 31/81/1 38/84/1 40/83/1 32/82/1
f 41/85/5 47/88/5 38/87/5 31/86/5
f 42/89/4 48/75/4 37/76/4 28/90/4
f 33/80/2 39/51/2 37/52/2 34/79/2
f 32/91/4 40/92/4 48/75/4 42/89/4
f 27/93/5 39/94/5 47/88/5 41/85/5
f 39/94/5 33/95/5 46/67/5 47/88/5
f 36/96/4 30/97/4 44/74/4 45/71/4
f 33/95/5 25/98/5 43/70/5 46/67/5
f 29/99/3 43/63/3 44/64/3 30/100/3
f 27/101/6 41/7/6 42/103/6 28/102/6
f 52/104/1 51/12/1 50/106/1 49/105/1
f 38/107/3 52/110/3 49/109/3 40/108/3
f 36/111/6 50/114/6 51/113/6 35/112/6
