#File written by RizomUV 2022.0.11.g5424fda. Compilation :Nov 24 2021,04:16:21
mtllib posterframe-matted01a:mtl
#begin vertices
v 33.50001 110 2.5
v 34.00001 9.499998 2.999999
v 34.00001 110.5 2.999999
v 33.50001 10 2.5
v -33.50001 110 2.5
v -34.00001 110.5 2.999999
v -34.00001 9.499998 2.999999
v -33.50001 10 2.5
v 33.50001 110 2.5
v -33.50001 10 2.5
v 33.50001 10 2.5
v -33.50001 110 2.5
v 43.49999 -0 2.999999
v 34.00001 9.499998 2.999999
v -43.49999 -0 2.999999
v 43.49999 120 2.999999
v 34.00001 110.5 2.999999
v -34.00001 110.5 2.999999
v -34.00001 9.499998 2.999999
v -43.49999 120 2.999999
v -46.5 123 0
v 46.5 -2.999999 1
v -46.5 -2.999999 0
v 46.5 123 1
v -46.5 -2.999999 2.999999
v 46.5 -2.999999 2.999999
v -46.5 123 2.999999
v 46.5 123 2.999999
v -46.5 -2.999999 4
v 46.5 -2.999999 4
v -46.5 123 4
v 46.5 123 4
v 45.00001 -1.5 5
v -45.00001 -1.5 5
v -45.00001 121.5 5
v 45.00001 121.5 5
v 44.25 -0.75 4.500001
v -44.25 -0.75 4.500001
v -44.25 120.75 4.500001
v 44.25 120.75 4.500001
v -44.25 -0.75 4.249999
v 44.25 -0.75 4.249999
v -44.25 120.75 4.249999
v 44.25 120.75 4.249999
v 43.49999 -0 4
v -43.49999 -0 4
v -43.49999 120 4
v 43.49999 120 4
v -43.49999 -0 2.999999
v 43.49999 -0 2.999999
v -43.49999 120 2.999999
v 43.49999 120 2.999999
#end vertices

#begin 118 textures vertices 
vt 0.3264186 0.1117791 0
vt 0.00390625 0.6862903 0
vt 0.9588369 0.4727686 0
vt 0.1233553 0.1085708 0
vt 0.9563582 0.7093821 0
vt 0.9588369 0.7111348 0
vt 0.113889 0.1244417 0
vt 0.6258673 0.8262279 0
vt 0.8708364 0.5549898 0
vt 0.5016104 0.00390625 0
vt 0.8708364 0.00390625 0
vt 0.5016104 0.5549898 0
vt 0.00390625 0.678371 0
vt 0.05730128 0.6249759 0
vt 0.4928932 0.678371 0
vt 0.00390625 0.00390625 0
vt 0.05730128 0.05730121 0
vt 0.4394981 0.05730121 0
vt 0.4394981 0.6249759 0
vt 0.4928932 0.00390625 0
vt 0.5366114 0.9610741 0
vt 0.3463267 0.7032839 0
vt 0.5366114 0.7032839 0
vt 0.3463267 0.9610741 0
vt 0.2772096 0.4622172 0
vt 0.2737044 0.1362353 0
vt 0.9262164 0.4455847 0
vt 0.3453738 0.4106298 0
vt 0.9297218 0.00390625 0
vt 0.2772096 0.1361976 0
vt 0.9297218 0.4455847 0
vt 0.348879 0.4106675 0
vt 0.3942879 0.07138899 0
vt 0.0737222 0.08165259 0
vt 0.07396141 0.5301776 0
vt 0.403487 0.5085704 0
vt 0.09946545 0.09209712 0
vt 0.07677627 0.08460386 0
vt 0.2796804 0.08676134 0
vt 0.4003257 0.5057654 0
vt 0.00390625 0.9960938 0
vt 0.1003418 0.09209712 0
vt 0.6330902 0.9589286 0
vt 0.9594983 0.4469746 0
vt 0.08752055 0.09247305 0
vt 0.006873265 0.9945937 0
vt 0.9016237 0.4266848 0
vt 0.9392133 0.9411742 0
vt 0.8798656 0.00390625 0
vt 0.09124792 0.09253668 0
vt 0.9051474 0.4265943 0
vt 0.2941379 0.5009283 0
vt 0.2666941 0.4623303 0
vt 0.06761238 0.07574254 0
vt 0.9157003 0.4455847 0
vt 0.3383635 0.08453484 0
vt 0.4212679 0.09408603 0
vt 0.9501063 0.4455847 0
vt 0.4002428 0.06526323 0
vt 0.9395901 0.4455847 0
vt 0.2666941 0.1363107 0
vt 0.9466009 0.4455847 0
vt 0.4098119 0.5141828 0
vt 0.9501063 0.00390625 0
vt 0.9466009 0.00390625 0
vt 0.3383635 0.4105545 0
vt 0.06761238 0.5355961 0
vt 0.3523842 0.0846856 0
vt 0.06890703 0.5368741 0
vt 0.348879 0.08464791 0
vt 0.305456 0.08761069 0
vt 0.9395901 0.00390625 0
vt 0.3025288 0.5001236 0
vt 0.3052933 0.497441 0
vt 0.2905839 0.0862256 0
vt 0.00390625 0.6984122 0
vt 0.3911863 0.07435336 0
vt 0.9594983 0.00390625 0
vt 0.0888146 0.4655765 0
vt 0.5049095 0.5628771 0
vt 0.09073591 0.3996624 0
vt 0.5016104 0.5642059 0
vt 0.3915032 0.07464299 0
vt 0.09946545 0.4023236 0
vt 0.08959487 0.4659676 0
vt 0.1003418 0.4023236 0
vt 0.08752055 0.4619988 0
vt 0.006706098 0.7009842 0
vt 0.08752055 0.4013844 0
vt 0.1258154 0.3434188 0
vt 0.6250411 0.8291491 0
vt 0.3352234 0.8060573 0
vt 0.3264186 0.464079 0
vt 0.113889 0.3628079 0
vt 0.1114104 0.3610552 0
vt 0.3288848 0.4623089 0
vt 0.1233553 0.3451973 0
vt 0.4179961 0.5430894 0
vt 0.8798656 0.7257562 0
vt 0.3144737 0.1062461 0
vt 0.2941379 0.08603811 0
vt 0.4212679 0.5447624 0
vt 0.9419584 0.9446744 0
vt 0.960242 0.4474651 0
vt 0.9604383 0.003932882 0
vt 0.9413493 0.9440926 0
vt 0.3025288 0.08558418 0
vt 0.07695345 0.5270813 0
vt 0.3174722 0.4601558 0
vt 0.6351094 0.9558163 0
vt 0.3144737 0.4627653 0
vt 0.9262164 0.00390625 0
vt 0.2807148 0.4621796 0
vt 0.9157003 0.00390625 0
vt 0.2789001 0.08637021 0
vt 0.633689 0.9595234 0
vt 0.3377021 0.8043046 0
vt 0.9563582 0.4745213 0
#end 118 textures vertices 

#begin 34 normals 
vn -0.7071 0 0.7071
vn 0 -0.7071 0.7071
vn 0 0.7071 0.7071
vn 0.7071 0 0.7071
vn 0 0 1
vn 0 0 1
vn -0.5745 0.5768 -0.5807
vn 0.5802 -0.5779 -0.5739
vn -0.5745 -0.5768 -0.5807
vn 0.5802 0.5779 -0.5739
vn -0.7071 -0.7071 0
vn 0.7071 -0.7071 0
vn -0.7071 0.7071 0
vn 0.7071 0.7071 0
vn -0.632 -0.632 0.4483
vn 0.632 -0.632 0.4483
vn -0.632 0.632 0.4483
vn 0.632 0.632 0.4483
vn 0.1442 -0.1442 0.979
vn -0.1442 -0.1442 0.979
vn -0.1442 0.1442 0.979
vn 0.1442 0.1442 0.979
vn -0.5145 0.5145 0.6859
vn 0.5145 0.5145 0.6859
vn 0.5145 -0.5145 0.6859
vn -0.5145 -0.5145 0.6859
vn 0.6074 0.6074 0.5119
vn -0.6074 0.6074 0.5119
vn 0.6074 -0.6074 0.5119
vn -0.6074 -0.6074 0.5119
vn -0.4199 0.4199 0.8045
vn 0.4199 0.4199 0.8045
vn 0.4199 -0.4199 0.8045
vn -0.4199 -0.4199 0.8045
#end 34 normals 

#begin 76 faces
o SketchUp:003_ID32
usemtl material_matting
s off
f 1/92/1 2/2/1 3/117/1 
f 2/93/1 1/1/1 4/96/1 
f 5/5/2 3/3/2 6/6/2 
f 3/3/2 5/5/2 1/118/2 
f 4/95/3 7/7/3 2/94/3 
f 7/97/3 4/4/3 8/90/3 
f 8/8/4 6/6/4 7/91/4 
f 6/6/4 8/8/4 5/5/4 
o SketchUp:002_ID19
usemtl material_poster
s off
f 9/9/5 10/10/5 11/11/5 
f 10/10/5 9/9/5 12/12/5 
o SketchUp:001_ID11
usemtl material_matting
s off
f 13/13/6 14/14/6 15/15/6 
f 14/14/6 13/13/6 16/16/6 
f 14/14/6 16/16/6 17/17/6 
f 17/17/6 16/16/6 18/18/6 
f 15/15/6 19/19/6 20/20/6 
f 19/19/6 15/15/6 14/14/6 
f 20/20/6 19/19/6 18/18/6 
f 20/20/6 18/18/6 16/16/6 
o SketchUp_ID3
usemtl material_frame
s 1
f 21/21/7 22/22/8 23/23/9 
f 22/22/8 21/21/7 24/24/10 
f 22/61/8 25/25/11 23/53/9 
f 25/25/11 22/61/8 26/26/12 
f 21/55/7 25/112/11 27/27/13 
f 25/112/11 21/55/7 23/114/9 
f 28/28/14 21/56/7 27/70/13 
f 21/56/7 28/28/14 24/66/10 
f 22/60/8 28/65/14 26/62/12 
f 28/65/14 22/60/8 24/72/10 
f 26/26/12 29/113/15 25/25/11 
f 29/113/15 26/26/12 30/30/16 
f 27/27/13 29/29/15 31/31/17 
f 29/29/15 27/27/13 25/112/11 
f 32/32/18 27/70/13 31/68/17 
f 27/70/13 32/32/18 28/28/14 
f 26/62/12 32/64/18 30/58/16 
f 32/64/18 26/62/12 28/65/14 
f 33/33/19 29/54/15 30/59/16 
f 29/54/15 33/33/19 34/34/20 
f 34/34/20 31/67/17 29/54/15 
f 31/67/17 34/34/20 35/35/21 
f 32/63/18 35/35/21 36/36/22 
f 35/35/21 32/63/18 31/69/17 
f 32/63/18 33/33/19 30/59/16 
f 33/33/19 32/63/18 36/36/22 
f 37/83/23 34/34/20 33/33/19 
f 34/34/20 37/83/23 38/38/24 
f 38/38/24 35/35/21 34/34/20 
f 35/35/21 38/38/24 39/108/25 
f 36/36/22 39/108/25 40/40/26 
f 39/108/25 36/36/22 35/35/21 
f 36/36/22 37/77/23 33/33/19 
f 37/77/23 36/36/22 40/40/26 
f 37/37/23 41/86/27 38/84/24 
f 41/86/27 37/37/23 42/42/28 
f 41/79/27 39/39/25 38/85/24 
f 39/39/25 41/79/27 43/115/29 
f 44/106/30 39/116/25 43/43/29 
f 39/116/25 44/106/30 40/103/26 
f 44/44/30 37/105/23 40/104/26 
f 37/105/23 44/44/30 42/78/28 
f 45/88/31 41/41/27 42/76/28 
f 41/41/27 45/88/31 46/46/32 
f 46/87/32 43/115/29 41/79/27 
f 43/43/29 46/82/32 47/110/33 
f 44/106/30 47/110/33 48/48/34 
f 47/110/33 44/106/30 43/43/29 
f 44/107/30 45/74/31 42/73/28 
f 45/74/31 44/107/30 48/71/34 
f 45/45/31 49/81/14 46/89/32 
f 49/81/14 45/45/31 50/50/13 
f 49/80/14 47/110/33 46/82/32 
f 47/47/33 49/49/14 51/51/12 
f 52/99/11 47/47/33 51/51/12 
f 47/100/33 52/109/11 48/111/34 
f 52/98/11 45/57/31 48/102/34 
f 45/101/31 52/52/11 50/75/13 
#end 76 faces

#ZOMPROPERTIES_04{
#ZOMPROPERTIES_04 table {Mesh table {SymPlane table {Point vector3d 0 0 0 Normal vector3d 1 0 0 Threshold double 0.01 
#ZOMPROPERTIES_04 Enabled bool false EdgeID int -1 SymEdgeID int -1 UPos double 0.5 LocalMode bool false } RootGroup C
#ZOMPROPERTIES_04 SubMeshGroup {Children table {Tile_0_0 CSubMeshGroup {Children table {} BBoxUV box3d 0 0 0 0 0 0 BBo
#ZOMPROPERTIES_04 x3D box3d 0 0 0 0 0 0 Area3D double 0 AreaUV double 0.411808 IsRoot bool false TopoStable table {Sel
#ZOMPROPERTIES_04 ected bool false Box box3d 0 1 0 1 0 1 U int 0 V int 0 NU int 0 NV int 0 Tiling vector3d 1 1 1 TileR
#ZOMPROPERTIES_04 atioMode string "1:1" Pack table {BoxFrameLocked bool false BoxFrameEdit bool false } } IsTile bool 
#ZOMPROPERTIES_04 true PolyIDs ints { 52 53 5 4 58 59 1 0 73 75 74 60 61 54 55 62 68 69 66 67 71 72 2 3 7 6 56 57 65 6
#ZOMPROPERTIES_04 4 63 70 20 21 28 29 24 25 33 32 26 35 34 27 22 31 30 23 36 37 44 45 46 39 47 49 40 41 43 50 51 48 38
#ZOMPROPERTIES_04  42 18 19 10 15 14 16 17 13 12 11 8 9 } } } BBoxUV box3d 0 0 0 0 0 0 BBox3D box3d 0 0 0 0 0 0 Area3D
#ZOMPROPERTIES_04  double 0 AreaUV double 0 IsRoot bool true TopoStable table {Selected bool false Box box3d 0 1 0 1 0
#ZOMPROPERTIES_04  1 U int 0 V int 0 NU int 1 NV int 1 Tiling vector3d 1 1 1 TileRatioMode string "1:1" Pack table {Ro
#ZOMPROPERTIES_04 tate table {Mode int 2 Min double 0 Max double 90 Step double 0 } PaddingSize double 0.0078125 Margi
#ZOMPROPERTIES_04 nSize double 0.00390625 Resolution int 256 MapResolution int 2048 Scaling table {TexelDensity double
#ZOMPROPERTIES_04  1024 Mode int 0 } LayoutScalingMode int 2 MaxMutations int 1 } } IsTile bool false PolyIDs ints { }
#ZOMPROPERTIES_04  } Maps table {Density table {PrimType string "Polygon" Size int 1 DefaultValue double 1 ScaleType s
#ZOMPROPERTIES_04 tring "Log" MergeMode string "Average" MinValue double 0.1 MaxValue double 4 Data doubles { r 76 1 }
#ZOMPROPERTIES_04  } Pin table {PrimType string "Vertex" Size int 1 DefaultValue double 0 ScaleType string "Normalized
#ZOMPROPERTIES_04 " MergeMode string "Max" MinValue double 0 MaxValue double 1 Data doubles { r 118 0 } } Protect tabl
#ZOMPROPERTIES_04 e {PrimType string "Vertex" Size int 1 DefaultValue double 0 ScaleType string "Normalized" MergeMode
#ZOMPROPERTIES_04  string "Average" MinValue double -1 MaxValue double 1 Data doubles { r 118 0 } } } } }
#ZOMPROPERTIES_04}


#ZOMSCENE_01{
#ZOMSCENE_01 CScene {Settings table {AxisSystem table {UpVector string "y" } Unit string "cm" } }
#ZOMSCENE_01}

#begin 0 fatal error vertex (that RizomUV cannot handle)
#end 0 fatal error vertex (that RizomUV cannot handle)

#begin 0 error vertex
#end 0 error vertex
