#File written by RizomUV 2022.0.11.g5424fda. Compilation :Nov 24 2021,04:16:21
mtllib moduloPuertas_NODO1:mtl
#begin vertices
v -4.476448 0.042635 1.259128
v -1.476448 0.042635 1.259128
v -4.476448 3.593691 1.259128
v -1.476448 3.593691 1.259128
v -4.476448 0.127773 1.259128
v -1.476448 0.127773 1.259128
v -4.476448 0.127773 1.292929
v -4.476448 0.042635 1.292929
v -1.476448 0.042635 1.292929
v -1.476448 0.127773 1.292929
v -4.209782 0.042635 1.259128
v -1.743112 0.042635 1.259128
v -1.743112 3.593691 1.259128
v -4.209783 3.593691 1.259128
v -1.743112 0.127773 1.259128
v -4.209783 0.127773 1.259128
v -4.209782 0.042635 1.292929
v -1.743112 0.042635 1.292929
v -1.743112 0.127773 1.292929
v -4.209783 0.127773 1.292929
v -1.476448 1.963296 1.259128
v -4.476448 1.963296 1.259128
v -4.209783 1.963296 1.259128
v -1.743112 1.963296 1.259128
v -1.476448 0.042635 0.998181
v -4.476448 0.042635 0.998181
v -1.476448 3.593691 0.998181
v -4.476448 3.593691 0.998181
v -1.476448 0.127773 0.998181
v -4.476448 0.127773 0.998181
v -1.476448 0.127773 0.964379
v -1.476448 0.042635 0.964379
v -4.476448 0.042635 0.964379
v -4.476448 0.127773 0.964379
v -1.743114 0.042635 0.998181
v -4.209784 0.042635 0.998181
v -4.209784 3.593691 0.998181
v -1.743113 3.593691 0.998181
v -4.209784 0.127773 0.998181
v -1.743113 0.127773 0.998181
v -1.743114 0.042635 0.964379
v -4.209784 0.042635 0.964379
v -4.209784 0.127773 0.964379
v -1.743113 0.127773 0.964379
v -4.476448 1.963296 0.998181
v -1.476448 1.963296 0.998181
v -1.743113 1.963296 0.998181
v -4.209784 1.963296 0.998181
v -4.209783 0.042635 0.99818
v -1.845814 0.042635 0.99818
v -4.107083 0.042635 0.99818
v -4.209783 1.880192 0.998181
v -4.107083 1.872502 0.998181
v -1.845814 1.872502 0.99818
v -1.743114 1.963296 0.919466
v -1.743114 1.872502 0.919466
v -1.743114 0.042635 0.919466
v -1.845814 0.042635 0.919466
v -1.845814 1.872502 0.919466
v -4.107083 1.872502 0.919467
v -4.107083 0.042635 0.919467
v -4.209783 0.042635 0.919467
v -4.209783 1.872502 0.919467
v -4.209783 1.963296 0.919467
v -4.107083 1.963296 0.919467
v -1.845814 1.963296 0.919466
v -1.743113 0.042635 0.99818
v -1.743113 1.87968 0.99818
v -1.743114 1.963296 0.99818
v -1.743114 1.963296 0.99818
v -4.209783 1.963296 0.998181
v -4.209783 1.963296 0.998181
v -4.107083 1.963296 0.998181
v -1.845814 1.963296 0.99818
v -1.743112 0.042635 1.259128
v -4.107082 0.042635 1.259128
v -1.845812 0.042635 1.259128
v -1.743112 1.880192 1.259128
v -1.845812 1.872502 1.259128
v -4.107082 1.872502 1.259128
v -4.209782 1.963296 1.337842
v -4.209782 1.872502 1.337842
v -4.209782 0.042635 1.337842
v -4.107082 0.042635 1.337842
v -4.107082 1.872502 1.337842
v -1.845812 1.872502 1.337842
v -1.845812 0.042635 1.337842
v -1.743112 0.042635 1.337842
v -1.743112 1.872502 1.337842
v -1.743112 1.963296 1.337842
v -1.845812 1.963296 1.337842
v -4.107082 1.963296 1.337842
v -4.209783 0.042635 1.259128
v -4.209782 1.87968 1.259128
v -4.107082 0.042635 0.998181
v -1.845812 0.042635 0.998181
v -1.845812 1.872502 0.998181
v -4.107082 1.872502 0.998181
v -4.209782 1.963296 1.259128
v -4.209782 1.963296 1.259128
v -1.743112 1.963296 1.259128
v -1.743112 1.963296 1.259128
v -1.845812 1.963296 1.259128
v -4.107082 1.963296 1.259128
#end vertices

#begin 104 textures vertices 
vt 0.3738526 0.9880545 0
vt 0.00390625 0.9889996 0
vt 0.3717611 0.5486827 0
vt 0.00390625 0.549619 0
vt 0.3729044 0.9736277 0
vt 0.004935836 0.9745714 0
vt 0.3703491 0.976606 0
vt 0.3712121 0.9856098 0
vt 0.006899476 0.9866145 0
vt 0.007070452 0.9775587 0
vt 0.3424119 0.9934536 0
vt 0.03565925 0.9942663 0
vt 0.03660426 0.5495344 0
vt 0.339063 0.5487648 0
vt 0.03773946 0.9745485 0
vt 0.3400826 0.9737858 0
vt 0.3415158 0.9891621 0
vt 0.03658053 0.989951 0
vt 0.03784119 0.9787463 0
vt 0.3399894 0.9779974 0
vt 0.004415086 0.7495335 0
vt 0.3722694 0.7485969 0
vt 0.3395708 0.7486806 0
vt 0.0371134 0.7494503 0
vt 0.9955327 0.1697314 0
vt 0.8554688 0.1703279 0
vt 0.9942673 0.00390625 0
vt 0.8554688 0.004670156 0
vt 0.9951733 0.1642469 0
vt 0.8563543 0.1649914 0
vt 0.9941967 0.1653623 0
vt 0.9945091 0.1687494 0
vt 0.8566798 0.1694305 0
vt 0.8571302 0.1660737 0
vt 0.9836564 0.1716831 0
vt 0.8680052 0.1725013 0
vt 0.8678064 0.004601236 0
vt 0.9819297 0.003973609 0
vt 0.8686866 0.1649872 0
vt 0.9827877 0.1643404 0
vt 0.9833517 0.1701421 0
vt 0.8683491 0.1709662 0
vt 0.8686617 0.1666877 0
vt 0.9827565 0.1659273 0
vt 0.8558843 0.08010094 0
vt 0.9946819 0.07933742 0
vt 0.9823442 0.07940547 0
vt 0.8682217 0.08003313 0
vt 0.6752351 0.9912921 0
vt 0.7084048 0.04353936 0
vt 0.7084048 0.9517531 0
vt 0.4008808 0.7520962 0
vt 0.4374506 0.717359 0
vt 0.4375933 0.2779278 0
vt 0.3965693 0.258383 0
vt 0.4116091 0.2548318 0
vt 0.6852085 0.01589048 0
vt 0.6983162 0.0315077 0
vt 0.4234016 0.2720144 0
vt 0.4233374 0.7233224 0
vt 0.6984008 0.9636507 0
vt 0.685309 0.9792791 0
vt 0.4115468 0.7404993 0
vt 0.3964935 0.7369871 0
vt 0.4050933 0.7216555 0
vt 0.4052389 0.2736612 0
vt 0.675134 0.00390625 0
vt 0.4009856 0.2431682 0
vt 0.3877688 0.2477342 0
vt 0.3828959 0.2599442 0
vt 0.3877515 0.7477059 0
vt 0.3828125 0.7355045 0
vt 0.3893526 0.7209048 0
vt 0.3895338 0.27444 0
vt 0.9213636 0.9898116 0
vt 0.9531966 0.1674212 0
vt 0.9536842 0.9700929 0
vt 0.788809 0.7536643 0
vt 0.8217604 0.7350262 0
vt 0.8199628 0.4018134 0
vt 0.7873356 0.3923039 0
vt 0.797085 0.3889758 0
vt 0.9307468 0.1535461 0
vt 0.9434538 0.1614341 0
vt 0.8088032 0.3989629 0
vt 0.8106432 0.7379416 0
vt 0.9439574 0.9759743 0
vt 0.9311952 0.9837797 0
vt 0.7988063 0.747843 0
vt 0.7900598 0.7444997 0
vt 0.7971832 0.7362637 0
vt 0.795498 0.4008466 0
vt 0.9209753 0.1474636 0
vt 0.7871505 0.3830057 0
vt 0.9859652 0.187597 0
vt 0.9859652 0.9506656 0
vt 0.8583847 0.725367 0
vt 0.8569429 0.4111634 0
vt 0.7788637 0.3872533 0
vt 0.7773438 0.3930718 0
vt 0.7810822 0.7490289 0
vt 0.7799393 0.7446921 0
vt 0.7856038 0.7355329 0
vt 0.7839771 0.4018027 0
#end 104 textures vertices 

#begin 20 normals 
vn -0 -0 1
vn -0 1 -0
vn -1 -0 -0
vn 1 -0 -0
vn -0 -1 -0
vn -0 -0 -1
vn -0 1 -0
vn 1 -0 -0
vn -1 -0 -0
vn -0 -1 -0
vn -0 -0 -1
vn 1 -0 -0
vn -1 -0 -0
vn -0 -1 -0
vn -0 1 -0
vn -0 -0 1
vn -1 -0 -0
vn 1 -0 -0
vn -0 -1 -0
vn -0 1 -0
#end 20 normals 

#begin 59 faces
o Plane:004
s 0
f 24/24/1 21/21/1 4/4/1 13/13/1 
f 16/16/2 5/5/2 7/7/2 20/20/2 
f 18/18/1 9/9/1 10/10/1 19/19/1 
f 5/5/3 1/1/3 8/8/3 7/7/3 
f 2/2/4 6/6/4 10/10/4 9/9/4 
f 12/12/5 2/2/5 9/9/5 18/18/5 
f 1/1/5 11/11/5 17/17/5 8/8/5 
f 8/8/1 17/17/1 20/20/1 7/7/1 
f 6/6/2 15/15/2 19/19/2 10/10/2 
f 22/22/1 23/23/1 14/14/1 3/3/1 
f 23/23/1 24/24/1 13/13/1 14/14/1 
f 5/5/1 16/16/1 23/23/1 22/22/1 
f 15/15/1 6/6/1 21/21/1 24/24/1 
o Plane:005
s 0
f 48/48/6 45/45/6 28/28/6 37/37/6 
f 40/40/7 29/29/7 31/31/7 44/44/7 
f 42/42/6 33/33/6 34/34/6 43/43/6 
f 29/29/8 25/25/8 32/32/8 31/31/8 
f 26/26/9 30/30/9 34/34/9 33/33/9 
f 36/36/10 26/26/10 33/33/10 42/42/10 
f 25/25/10 35/35/10 41/41/10 32/32/10 
f 32/32/6 41/41/6 44/44/6 31/31/6 
f 30/30/7 39/39/7 43/43/7 34/34/7 
f 46/46/6 47/47/6 38/38/6 27/27/6 
f 47/47/6 48/48/6 37/37/6 38/38/6 
f 29/29/6 40/40/6 47/47/6 46/46/6 
f 39/39/6 30/30/6 45/45/6 48/48/6 
o Object002:002
s 1
f 62/62/11 63/63/11 60/60/11 61/61/11 
f 55/55/11 56/56/11 59/59/11 66/66/11 
f 65/65/11 66/66/11 59/59/11 60/60/11 
f 64/64/11 65/65/11 60/60/11 63/63/11 
f 57/57/11 58/58/11 59/59/11 56/56/11 
f 68/68/12 67/67/12 57/57/12 56/56/12 
f 50/50/13 54/54/13 59/59/13 58/58/13 
f 54/54/14 53/53/14 60/60/14 59/59/14 
f 53/53/12 51/51/12 61/61/12 60/60/12 
f 49/49/13 52/52/13 63/63/13 62/62/13 
f 64/64/13 63/63/13 52/52/13 71/71/13 
f 56/56/12 55/55/12 69/69/12 68/68/12 
f 65/65/15 64/64/15 72/72/15 73/73/15 
f 66/66/15 65/65/15 73/73/15 74/74/15 
f 55/55/15 66/66/15 74/74/15 70/70/15 
o Object002:003
s 1
f 88/88/16 89/89/16 86/86/16 87/87/16 
f 81/81/16 82/82/16 85/85/16 92/92/16 
f 91/91/16 92/92/16 85/85/16 86/86/16 
f 90/90/16 91/91/16 86/86/16 89/89/16 
f 83/83/16 84/84/16 85/85/16 82/82/16 
f 94/94/17 93/93/17 83/83/17 82/82/17 
f 76/76/18 80/80/18 85/85/18 84/84/18 
f 80/80/19 79/79/19 86/86/19 85/85/19 
f 79/79/17 77/77/17 87/87/17 86/86/17 
f 75/75/18 78/78/18 89/89/18 88/88/18 
f 77/77/17 79/79/17 97/97/17 96/96/17 
f 79/79/19 80/80/19 98/98/19 97/97/19 
f 80/80/18 76/76/18 95/95/18 98/98/18 
f 90/90/18 89/89/18 78/78/18 101/101/18 
f 82/82/17 81/81/17 99/99/17 94/94/17 
f 91/91/20 90/90/20 102/102/20 103/103/20 
f 92/92/20 91/91/20 103/103/20 104/104/20 
f 81/81/20 92/92/20 104/104/20 100/100/20 
#end 59 faces

#ZOMPROPERTIES_04{
#ZOMPROPERTIES_04 table {Mesh table {SymPlane table {Point vector3d 0 0 0 Normal vector3d 1 0 0 Threshold double 0.01 
#ZOMPROPERTIES_04 Enabled bool false EdgeID int -1 SymEdgeID int -1 UPos double 0.5 LocalMode bool false } RootGroup C
#ZOMPROPERTIES_04 SubMeshGroup {Children table {Tile_0_0 CSubMeshGroup {Children table {} BBoxUV box3d 0 0 0 0 0 0 BBo
#ZOMPROPERTIES_04 x3D box3d 0 0 0 0 0 0 Area3D double 0 AreaUV double 0.227047 IsRoot bool false TopoStable table {Sel
#ZOMPROPERTIES_04 ected bool false Box box3d 0 1 0 1 0 1 U int 0 V int 0 NU int 0 NV int 0 Tiling vector3d 1 1 1 TileR
#ZOMPROPERTIES_04 atioMode string "1:1" Pack table {BoxFrameLocked bool false BoxFrameEdit bool false } } IsTile bool 
#ZOMPROPERTIES_04 true PolyIDs ints { 13 25 21 15 17 18 23 22 24 14 20 19 16 26 34 33 32 30 31 37 27 40 39 38 29 36 28
#ZOMPROPERTIES_04  35 41 49 51 52 53 47 45 46 55 42 58 57 56 44 43 48 54 50 0 12 8 4 5 2 10 9 11 1 7 6 3 } } } BBoxUV 
#ZOMPROPERTIES_04 box3d 0 0 0 0 0 0 BBox3D box3d 0 0 0 0 0 0 Area3D double 0 AreaUV double 0 IsRoot bool true TopoStab
#ZOMPROPERTIES_04 le table {Selected bool false Box box3d 0 1 0 1 0 1 U int 0 V int 0 NU int 1 NV int 1 Tiling vector3
#ZOMPROPERTIES_04 d 1 1 1 TileRatioMode string "1:1" Pack table {Rotate table {Mode int 2 Min double 0 Max double 90 S
#ZOMPROPERTIES_04 tep double 0 } PaddingSize double 0.0078125 MarginSize double 0.00390625 Resolution int 256 MapResol
#ZOMPROPERTIES_04 ution int 2048 Scaling table {TexelDensity double 1024 Mode int 0 } LayoutScalingMode int 2 MaxMutat
#ZOMPROPERTIES_04 ions int 1 } } IsTile bool false PolyIDs ints { } } Maps table {Density table {PrimType string "Poly
#ZOMPROPERTIES_04 gon" Size int 1 DefaultValue double 1 ScaleType string "Log" MergeMode string "Average" MinValue dou
#ZOMPROPERTIES_04 ble 0.1 MaxValue double 4 Data doubles { r 59 1 } } Pin table {PrimType string "Vertex" Size int 1 D
#ZOMPROPERTIES_04 efaultValue double 0 ScaleType string "Normalized" MergeMode string "Max" MinValue double 0 MaxValue
#ZOMPROPERTIES_04  double 1 Data doubles { r 104 0 } } Protect table {PrimType string "Vertex" Size int 1 DefaultValue
#ZOMPROPERTIES_04  double 0 ScaleType string "Normalized" MergeMode string "Average" MinValue double -1 MaxValue doubl
#ZOMPROPERTIES_04 e 1 Data doubles { r 104 0 } } } } }
#ZOMPROPERTIES_04}


#ZOMSCENE_01{
#ZOMSCENE_01 CScene {Settings table {AxisSystem table {UpVector string "y" } Unit string "cm" } }
#ZOMSCENE_01}

#begin 0 fatal error vertex (that RizomUV cannot handle)
#end 0 fatal error vertex (that RizomUV cannot handle)

#begin 0 error vertex
#end 0 error vertex
