#File written by RizomUV 2022.0.11.g5424fda. Compilation :Nov 24 2021,04:16:21
mtllib moduloPuertas_NODO1:mtl
#begin vertices
v -4.476448 0.042635 1.259128
v -1.476448 0.042635 1.259128
v -4.476448 3.593691 1.259128
v -1.476448 3.593691 1.259128
v -4.476448 0.127773 1.259128
v -1.476448 0.127773 1.259128
v -4.476448 0.127773 1.292929
v -4.476448 0.042635 1.292929
v -1.476448 0.042635 1.292929
v -1.476448 0.127773 1.292929
v -4.209782 0.042635 1.259128
v -1.743112 0.042635 1.259128
v -1.743112 3.593691 1.259128
v -4.209783 3.593691 1.259128
v -1.743112 0.127773 1.259128
v -4.209783 0.127773 1.259128
v -4.209782 0.042635 1.292929
v -1.743112 0.042635 1.292929
v -1.743112 0.127773 1.292929
v -4.209783 0.127773 1.292929
v -1.476448 1.963296 1.259128
v -4.476448 1.963296 1.259128
v -4.209783 1.963296 1.259128
v -1.743112 1.963296 1.259128
v -1.476448 0.042635 0.998181
v -4.476448 0.042635 0.998181
v -1.476448 3.593691 0.998181
v -4.476448 3.593691 0.998181
v -1.476448 0.127773 0.998181
v -4.476448 0.127773 0.998181
v -1.476448 0.127773 0.964379
v -1.476448 0.042635 0.964379
v -4.476448 0.042635 0.964379
v -4.476448 0.127773 0.964379
v -1.743114 0.042635 0.998181
v -4.209784 0.042635 0.998181
v -4.209784 3.593691 0.998181
v -1.743113 3.593691 0.998181
v -4.209784 0.127773 0.998181
v -1.743113 0.127773 0.998181
v -1.743114 0.042635 0.964379
v -4.209784 0.042635 0.964379
v -4.209784 0.127773 0.964379
v -1.743113 0.127773 0.964379
v -4.476448 1.963296 0.998181
v -1.476448 1.963296 0.998181
v -1.743113 1.963296 0.998181
v -4.209784 1.963296 0.998181
v -4.209783 0.042635 0.99818
v -1.845814 0.042635 0.99818
v -4.107083 0.042635 0.99818
v -4.209783 1.880192 0.998181
v -4.107083 1.872502 0.998181
v -1.845814 1.872502 0.99818
v -1.743114 1.963296 0.919466
v -1.743114 1.872502 0.919466
v -1.743114 0.042635 0.919466
v -1.845814 0.042635 0.919466
v -1.845814 1.872502 0.919466
v -4.107083 1.872502 0.919467
v -4.107083 0.042635 0.919467
v -4.209783 0.042635 0.919467
v -4.209783 1.872502 0.919467
v -4.209783 1.963296 0.919467
v -4.107083 1.963296 0.919467
v -1.845814 1.963296 0.919466
v -1.743113 0.042635 0.99818
v -1.743113 1.87968 0.99818
v -1.743114 1.963296 0.99818
v -1.743114 1.963296 0.99818
v -4.209783 1.963296 0.998181
v -4.209783 1.963296 0.998181
v -4.107083 1.963296 0.998181
v -1.845814 1.963296 0.99818
v -1.743112 0.042635 1.259128
v -4.107082 0.042635 1.259128
v -1.845812 0.042635 1.259128
v -1.743112 1.880192 1.259128
v -1.845812 1.872502 1.259128
v -4.107082 1.872502 1.259128
v -4.209782 1.963296 1.337842
v -4.209782 1.872502 1.337842
v -4.209782 0.042635 1.337842
v -4.107082 0.042635 1.337842
v -4.107082 1.872502 1.337842
v -1.845812 1.872502 1.337842
v -1.845812 0.042635 1.337842
v -1.743112 0.042635 1.337842
v -1.743112 1.872502 1.337842
v -1.743112 1.963296 1.337842
v -1.845812 1.963296 1.337842
v -4.107082 1.963296 1.337842
v -4.209783 0.042635 1.259128
v -4.209782 1.87968 1.259128
v -4.107082 0.042635 0.998181
v -1.845812 0.042635 0.998181
v -1.845812 1.872502 0.998181
v -4.107082 1.872502 0.998181
v -4.209782 1.963296 1.259128
v -4.209782 1.963296 1.259128
v -1.743112 1.963296 1.259128
v -1.743112 1.963296 1.259128
v -1.845812 1.963296 1.259128
v -4.107082 1.963296 1.259128
#end vertices

#begin 173 textures vertices 
vt 0.6418915 0.3033382 0
vt 0.3733685 0.3470005 0
vt 0.9959418 0.00390625 0
vt 0.5047959 0.00396632 0
vt 0.7239352 0.3172881 0
vt 0.5047959 0.5713466 0
vt 0.3514291 0.3467204 0
vt 0.3379169 0.3491061 0
vt 0.4069659 0.3033372 0
vt 0.4209063 0.3033372 0
vt 0.6442928 0.3503738 0
vt 0.3733685 0.3033372 0
vt 0.5484531 0.003959197 0
vt 0.9522846 0.003910108 0
vt 0.6283057 0.3510123 0
vt 0.9522711 0.5713818 0
vt 0.3365283 0.303758 0
vt 0.3678339 0.3033372 0
vt 0.4209063 0.3470005 0
vt 0.3507174 0.3033351 0
vt 0.5048286 0.2708847 0
vt 0.9959739 0.270824 0
vt 0.9523159 0.27083 0
vt 0.5484862 0.2708793 0
vt 0.6691504 0.3470113 0.002767354
vt 0.697027 0.3032263 0
vt 0.4951287 0.00390654 0
vt 0.00390625 0.003907867 0
vt 0.7082824 0.3172881 0
vt 0.003924221 0.5713062 0
vt 0.68089 0.3033477 -0.002767354
vt 0.7138171 0.3033477 0
vt 0.58306 0.3033477 0
vt 0.5970004 0.3033477 0
vt 0.6691504 0.3033477 0.002767354
vt 0.6125977 0.3038802 0
vt 0.04757021 0.00390625 0
vt 0.4514648 0.003906517 0
vt 0.6600035 0.3503419 0
vt 0.4514647 0.571418 0
vt 0.3834867 0.3470008 0
vt 0.6065392 0.3033367 0
vt 0.5970004 0.347011 0
vt 0.68089 0.3470112 -0.002767354
vt 0.003907457 0.2708682 0
vt 0.4951287 0.2708684 0
vt 0.4514648 0.2708684 0
vt 0.04757103 0.2708682 0
vt 0.2895701 0.6178245 0
vt 0.3130491 0.602958 0
vt 0.8843766 0.2786657 0
vt 0.2895699 0.3169446 0
vt 0.8843764 0.5782864 0
vt 0.8843765 0.9485445 0
vt 0.2789793 0.6178245 0
vt 0.140082 0.2786948 0
vt 0.4397028 0.2786948 0
vt 0.3259377 0.602958 0
vt 0.140082 0.2955108 0
vt 0.897265 0.5782864 0
vt 0.4397028 0.6657689 0
vt 0.3024585 0.6178245 0
vt 0.140082 0.6825849 0
vt 0.9153547 0.2786395 0
vt 0.1252155 0.6657689 0
vt 0.1252155 0.2955108 0
vt 0.2660907 0.3033372 0
vt 0.2660907 0.6041333 0
vt 0.2660907 0.6178245 0
vt 0.9267467 0.6765951 0
vt 0.2895699 0.3033372 0
vt 0.9267467 0.279909 0
vt 0.9212603 0.2920427 0
vt 0.9209479 0.6642159 0
vt 0.2555001 0.3033372 0
vt 0.1914221 0.6029579 0
vt 0.1014183 0.2786947 0
vt 0.2555001 0.6042171 0
vt 0.1014183 0.5783154 0
vt 0.191422 0.3033373 0
vt 0.2227362 0.3033367 0
vt 0.5744473 0.2787053 0
vt 0.874068 0.2787053 0
vt 0.2043106 0.6029577 0
vt 0.1143068 0.9485737 0
vt 0.1143068 0.5783154 0
vt 0.874068 0.6657796 0
vt 0.2426115 0.3033372 0
vt 0.5744473 0.6825956 0
vt 0.01679481 0.9831423 0
vt 0.5595808 0.6657796 0
vt 0.5595808 0.2955213 0
vt 0.2338181 0.6165465 0
vt 0.2282414 0.3122181 0
vt 0.1486949 0.6029584 0
vt 0.05869106 0.2786947 0
vt 0.05869106 0.5783154 0
vt 0.05869106 0.9485737 0
vt 0.2338181 0.3033654 0
vt 0.00390625 0.579252 0
vt 0.2555001 0.6178245 0
vt 0.00390625 0.9831423 0
vt 0.00390625 0.9663263 0
vt 0.00390625 0.596068 0
vt 0.5595808 0.6825956 0
vt 0.2152191 0.3121384 0
vt 0.01679481 0.9663263 0
vt 0.220889 0.6162649 0
vt 0.5595808 0.2787053 0
vt 0.01679481 0.579252 0
vt 0.01679481 0.596068 0
vt 0.1014183 0.9485737 0
vt 0.1486947 0.3033378 0
vt 0.5744473 0.2955213 0
vt 0.2043106 0.3033372 0
vt 0.874068 0.2955213 0
vt 0.874068 0.6825956 0
vt 0.2426115 0.6178245 0
vt 0.2426115 0.602958 0
vt 0.5744473 0.6657796 0
vt 0.1143068 0.2786947 0
vt 0.6378448 0.3067801 0
vt 0.3563759 0.3034348 0
vt 0.9960937 0.5712769 0
vt 0.7239352 0.3033477 0
vt 0.6378448 0.3509349 0
vt 0.3563759 0.3485752 0
vt 0.7294697 0.3172881 0
vt 0.7294697 0.3033477 0
vt 0.6264266 0.3031934 0
vt 0.3733685 0.3609409 0
vt 0.5485939 0.5714221 0
vt 0.3678339 0.3609409 0
vt 0.622192 0.3064733 0
vt 0.622192 0.3513968 0
vt 0.4069659 0.3470005 0
vt 0.3678339 0.3470005 0
vt 0.6691504 0.3470113 -0.002767354
vt 0.3834867 0.3033372 0
vt 0.68089 0.3470112 0.002767354
vt 0.68089 0.3033477 0.002767354
vt 0.4951285 0.5714181 0
vt 0.7138171 0.3172881 0
vt 0.3974271 0.3033372 0
vt 0.3974271 0.3470007 0
vt 0.7082824 0.3033477 0
vt 0.6691504 0.3033477 -0.002767354
vt 0.2789793 0.3033372 0
vt 0.3259377 0.3033372 0
vt 0.9078556 0.6647662 0
vt 0.4397028 0.2955108 0
vt 0.1252155 0.2786948 0
vt 0.9156094 0.6781699 0
vt 0.1252155 0.6825849 0
vt 0.2789793 0.602958 0
vt 0.9081511 0.291381 0
vt 0.3130491 0.3033372 0
vt 0.897265 0.9485445 0
vt 0.140082 0.6657689 0
vt 0.897265 0.2786657 0
vt 0.4397028 0.6825849 0
vt 0.3024585 0.3182037 0
vt 0.3024585 0.3033372 0
vt 0.6574778 0.3031962 0
vt 0.697027 0.3259316 0
vt 0.04756866 0.5715296 0
vt 0.6105909 0.3530394 0
vt 0.58306 0.347011 0
vt 0.6930709 0.3219827 0
vt 0.6534976 0.3063827 0
vt 0.6534976 0.3505932 0
vt 0.6926296 0.3077742 0
vt 0.6065392 0.3488497 0
#end 173 textures vertices 

#begin 20 normals 
vn -0 -0 1
vn -0 1 -0
vn -1 -0 -0
vn 1 -0 -0
vn -0 -1 -0
vn -0 -0 -1
vn -0 1 -0
vn 1 -0 -0
vn -1 -0 -0
vn -0 -1 -0
vn -0 -0 -1
vn 1 -0 -0
vn -1 -0 -0
vn -0 -1 -0
vn -0 1 -0
vn -0 -0 1
vn -1 -0 -0
vn 1 -0 -0
vn -0 -1 -0
vn -0 1 -0
#end 20 normals 

#begin 59 faces
o Plane:004
s 0
f 24/24/1 21/21/1 4/4/1 13/13/1 
f 16/123/2 5/127/2 7/7/2 20/20/2 
f 18/136/1 9/9/1 10/10/1 19/19/1 
f 5/5/3 1/125/3 8/129/3 7/128/3 
f 2/2/4 6/131/4 10/133/4 9/137/4 
f 12/12/5 2/2/5 9/137/5 18/18/5 
f 1/1/5 11/11/5 17/126/5 8/122/5 
f 8/8/1 17/17/1 20/20/1 7/7/1 
f 6/130/2 15/15/2 19/135/2 10/134/2 
f 22/22/1 23/23/1 14/14/1 3/3/1 
f 23/23/1 24/24/1 13/13/1 14/14/1 
f 5/124/1 16/16/1 23/23/1 22/22/1 
f 15/132/1 6/6/1 21/21/1 24/24/1 
o Plane:005
s 0
f 48/48/6 45/45/6 28/28/6 37/37/6 
f 40/140/7 29/141/7 31/31/7 44/44/7 
f 42/168/6 33/33/6 34/34/6 43/43/6 
f 29/29/8 25/146/8 32/32/8 31/143/8 
f 26/26/9 30/165/9 34/169/9 33/172/9 
f 36/36/10 26/167/10 33/173/10 42/42/10 
f 25/25/10 35/35/10 41/147/10 32/138/10 
f 32/139/6 41/41/6 44/145/6 31/144/6 
f 30/164/7 39/39/7 43/171/7 34/170/7 
f 46/46/6 47/47/6 38/38/6 27/27/6 
f 47/47/6 48/48/6 37/37/6 38/38/6 
f 29/142/6 40/40/6 47/47/6 46/46/6 
f 39/166/6 30/30/6 45/45/6 48/48/6 
o Object002:002
s 1
f 62/161/11 63/63/11 60/159/11 61/61/11 
f 55/152/11 56/56/11 59/59/11 66/66/11 
f 65/65/11 66/66/11 59/59/11 60/159/11 
f 64/154/11 65/65/11 60/159/11 63/63/11 
f 57/57/11 58/151/11 59/59/11 56/56/11 
f 68/68/12 67/67/12 57/148/12 56/155/12 
f 50/50/13 54/157/13 59/149/13 58/58/13 
f 54/54/14 53/53/14 60/60/14 59/158/14 
f 53/53/12 51/51/12 61/160/12 60/60/12 
f 49/49/13 52/52/13 63/162/13 62/62/13 
f 64/163/13 63/162/13 52/52/13 71/71/13 
f 56/155/12 55/55/12 69/69/12 68/68/12 
f 65/156/15 64/64/15 72/72/15 73/73/15 
f 66/150/15 65/156/15 73/73/15 74/74/15 
f 55/153/15 66/150/15 74/74/15 70/70/15 
o Object002:003
s 1
f 88/117/16 89/89/16 86/120/16 87/87/16 
f 81/109/16 82/82/16 85/114/16 92/92/16 
f 91/91/16 92/92/16 85/114/16 86/120/16 
f 90/105/16 91/91/16 86/120/16 89/89/16 
f 83/83/16 84/116/16 85/114/16 82/82/16 
f 94/94/17 93/93/17 83/108/17 82/106/17 
f 76/76/18 80/80/18 85/115/18 84/84/18 
f 80/112/19 79/79/19 86/86/19 85/85/19 
f 79/79/17 77/77/17 87/121/17 86/86/17 
f 75/75/18 78/78/18 89/119/18 88/88/18 
f 77/77/17 79/79/17 97/97/17 96/96/17 
f 79/79/19 80/112/19 98/98/19 97/97/19 
f 80/80/18 76/76/18 95/95/18 98/113/18 
f 90/118/18 89/119/18 78/78/18 101/101/18 
f 82/106/17 81/81/17 99/99/17 94/94/17 
f 91/107/20 90/90/20 102/102/20 103/103/20 
f 92/111/20 91/107/20 103/103/20 104/104/20 
f 81/110/20 92/111/20 104/104/20 100/100/20 
#end 59 faces

#ZOMPROPERTIES_04{
#ZOMPROPERTIES_04 table {Mesh table {SymPlane table {Point vector3d 0 0 0 Normal vector3d 1 0 0 Threshold double 0.01 
#ZOMPROPERTIES_04 Enabled bool false EdgeID int -1 SymEdgeID int -1 UPos double 0.5 LocalMode bool false } RootGroup C
#ZOMPROPERTIES_04 SubMeshGroup {Children table {Tile_0_0 CSubMeshGroup {Children table {} BBoxUV box3d 0 0 0 0 0 0 BBo
#ZOMPROPERTIES_04 x3D box3d 0 0 0 0 0 0 Area3D double 0 AreaUV double 0.44464 IsRoot bool false TopoStable table {Sele
#ZOMPROPERTIES_04 cted bool false Box box3d 0 1 0 1 0 1 U int 0 V int 0 NU int 0 NV int 0 Tiling vector3d 1 1 1 TileRa
#ZOMPROPERTIES_04 tioMode string "1:1" Pack table {BoxFrameLocked bool false BoxFrameEdit bool false } } IsTile bool t
#ZOMPROPERTIES_04 rue PolyIDs ints { 19 14 3 16 17 8 6 18 21 4 5 2 15 20 1 7 32 35 36 50 54 46 55 31 37 38 39 40 56 57
#ZOMPROPERTIES_04  58 33 34 26 29 28 27 30 41 44 43 42 45 47 53 48 49 51 52 0 12 10 9 11 13 25 23 22 24 } } } BBoxUV b
#ZOMPROPERTIES_04 ox3d 0 0 0 0 0 0 BBox3D box3d 0 0 0 0 0 0 Area3D double 0 AreaUV double 0 IsRoot bool true TopoStabl
#ZOMPROPERTIES_04 e table {Selected bool false Box box3d 0 1 0 1 0 1 U int 0 V int 0 NU int 1 NV int 1 Tiling vector3d
#ZOMPROPERTIES_04  1 1 1 TileRatioMode string "1:1" Pack table {Rotate table {Mode int 2 Min double 0 Max double 90 St
#ZOMPROPERTIES_04 ep double 0 } PaddingSize double 0.0078125 MarginSize double 0.00390625 Resolution int 256 MapResolu
#ZOMPROPERTIES_04 tion int 2048 Scaling table {TexelDensity double 1024 Mode int 0 } LayoutScalingMode int 2 MaxMutati
#ZOMPROPERTIES_04 ons int 1 } } IsTile bool false PolyIDs ints { } } Maps table {Density table {PrimType string "Polyg
#ZOMPROPERTIES_04 on" Size int 1 DefaultValue double 1 ScaleType string "Log" MergeMode string "Average" MinValue doub
#ZOMPROPERTIES_04 le 0.1 MaxValue double 4 Data doubles { r 59 1 } } Pin table {PrimType string "Vertex" Size int 1 De
#ZOMPROPERTIES_04 faultValue double 0 ScaleType string "Normalized" MergeMode string "Max" MinValue double 0 MaxValue 
#ZOMPROPERTIES_04 double 1 Data doubles { r 173 0 } } Protect table {PrimType string "Vertex" Size int 1 DefaultValue 
#ZOMPROPERTIES_04 double 0 ScaleType string "Normalized" MergeMode string "Average" MinValue double -1 MaxValue double
#ZOMPROPERTIES_04  1 Data doubles { r 173 0 } } } } }
#ZOMPROPERTIES_04}


#ZOMSCENE_01{
#ZOMSCENE_01 CScene {Settings table {AxisSystem table {UpVector string "y" } Unit string "cm" } }
#ZOMSCENE_01}

#begin 0 fatal error vertex (that RizomUV cannot handle)
#end 0 fatal error vertex (that RizomUV cannot handle)

#begin 0 error vertex
#end 0 error vertex
